<svg id="Layer_1" data-name="Layer 1" xmlns="http://www.w3.org/2000/svg" viewBox="0 0 612 178.7"><defs><style>.cls-1{fill:#fff;}</style></defs><title>Artboard 1</title><g id="_Group_" data-name="&lt;Group&gt;"><path id="_Compound_Path_" data-name="&lt;Compound Path&gt;" class="cls-1" d="M446.7,87.3c.1.1.1.2.2.3V88l-.1.3a.35.35,0,0,1-.1.2v28.4h7.5V96.8h11.4l10,20.1h8.7L473.9,96.2a14.71,14.71,0,0,0,8.2-5,13.67,13.67,0,0,0,2.8-7.1h0a2.07,2.07,0,0,1-.3-1.1l.4-.5V81.3a15.88,15.88,0,0,0-1.3-6.8,14.11,14.11,0,0,0-3.5-4.7A17.28,17.28,0,0,0,475,67a21.32,21.32,0,0,0-6.3-.9h-14a1.63,1.63,0,0,1-.3.6l-.4.1a.64.64,0,0,1-.5-.7h-7V87.3Zm35.6-10.1h0v.1l.4-.6h.6l.4.6-.1.1a2.81,2.81,0,0,1-.1.8l-.4.3h-.3a1.69,1.69,0,0,1-1-.3l-.2-.3C481.6,77.6,481.8,77.4,482.3,77.2Zm-7.1,13.3c-.4,0-.6-.3-.8-.5l-.2-.5c.1-.5.4-.5.6-.5a.85.85,0,0,1,.6.3l.1.1h-.1l.4.6A.56.56,0,0,1,475.2,90.5Zm2.3-19c.6-.3.6.9,0,.6Zm-1.4.3.3.5a.91.91,0,0,1-1,.8h-.3l-.4-.4V72l.3-.4a1.51,1.51,0,0,1,.8.1C476,71.8,476,71.8,476.1,71.8Zm-5.2-3.6.4-.5a1.06,1.06,0,0,1,.9.6h0l-.1-.5a1.9,1.9,0,0,1,1.8.5v-.4l.6-.4a.77.77,0,0,0,.3.1h.2c.2,0,.3.1.6.2l.2.6c-.2.3-.4.8-1.1.8a2.53,2.53,0,0,1,.1,2.4l-.4.3a.85.85,0,0,1-.6-.2l-.3.1a1.09,1.09,0,0,1,.1.5v.2l-.1-.1.5.5a.73.73,0,0,1-.7.6,4.33,4.33,0,0,1-.5-.1c-.1,0-.1,0-.1-.1h0a.37.37,0,0,0,.3-.1l.1-.1H473l-.6.5c-.1-.1-.2-.1-.4-.1l-.3-.8a2,2,0,0,0,.8-1l.1-.1a1.79,1.79,0,0,1-.7-.5c0,.2-.1.3-.2.5l-.1.3-.6.2c-.2-.1-.4-.3-.6-.4a2.18,2.18,0,0,1-.5-.4l-.1-.6a4.35,4.35,0,0,1,.6-.7A2.38,2.38,0,0,0,470.9,68.2Zm-2.3,1.3v-.2l.4-.6c.2,0,.6,0,.7.3s0,.5-.1.7a.35.35,0,0,1-.1.2l-.4.6a.76.76,0,0,1-.5-.2Zm-.3-2.1.2.6v.2c0,.3-.1.5-.5.7l-.4.1a.62.62,0,0,1-.5-.8A1,1,0,0,1,468.3,67.4Zm-5.2,1.5a.76.76,0,0,1,.5.2l.2-.1a1.38,1.38,0,0,1,.4.3l.1-.2a1.65,1.65,0,0,1,1.9,0,2.07,2.07,0,0,0,.6.2l.6-.3a1.33,1.33,0,0,1,.6.9.37.37,0,0,0,.1.3h.1l.5.6a41666780.49,41666780.49,0,0,1-.6.8l-.5.3a3.29,3.29,0,0,1-1.6-.7,4.13,4.13,0,0,0-1.5-.7l-.3-.4v-.2a2.19,2.19,0,0,1-.5.3h0a1.28,1.28,0,0,1,.6,1.2l-.5.4c-.7-.1-.8-.7-1-1.1,0-.1,0-.2-.1-.2s-.1-.1-.1-.2l.4-.2a.78.78,0,0,1-.4-.4v-.2A.46.46,0,0,1,463.1,68.9ZM457,70a.76.76,0,0,1,.5.2h0l.1-.1c.4.1.5.3.5.6,0,.1,0,.1-.1.2l.2.5c-.1.1-.1.2-.1.5l-.5.4.1-.1-.4.3h-.1a.59.59,0,0,1-.5-.2,1.49,1.49,0,0,1-.2-.9v-.3l.1.1-.3-.5C456.4,70.2,456.7,70,457,70Zm-3.3,16a.1.1,0,0,1-.1.1l.5-.4h0V73.4h14.7a10.17,10.17,0,0,1,4.4.9c0-.1.1-.2.2-.3a.91.91,0,0,1,.7-.3h.2l.4.5v.2a1.69,1.69,0,0,1-.2.5c.2.2.5.4.7.6,1.6,1.4,2.3,3.4,2.3,6.1s-.8,4.8-2.4,6.1a9.61,9.61,0,0,1-6.2,2H454.2V87.3h-.5l-.4-.3A.89.89,0,0,1,453.7,86Zm-2.5-8.2a1,1,0,0,1,.8-.3l.4.4a1.5,1.5,0,0,1-.2,1,.91.91,0,0,1-.7.3h-.2l-.4-.4C451,78.4,451,78,451.2,77.8Zm-3.8-2.3c.2,0,.3.1.5.2l.1.1.5.5a.66.66,0,0,1-.7.6,1.42,1.42,0,0,1-.6-.2c-.1,0-.1-.1-.2-.1l-.2-.5C446.9,75.6,447.2,75.5,447.4,75.5Z"/><path id="_Compound_Path_2" data-name="&lt;Compound Path&gt;" class="cls-1" d="M611.9,89.5a.35.35,0,0,1,.1-.2V63.5l-.1-.1a1.1,1.1,0,0,1,0-.8h0v-14a1.22,1.22,0,0,0-1.2-1.2H560.8a1,1,0,0,1-1,.7h0l-.4-.3v-.4H469.7a1.08,1.08,0,0,1-.7.3.91.91,0,0,1-.7-.3H425l-.2.5a4.17,4.17,0,0,0-.6.2,1.48,1.48,0,0,1-.7.1,2.49,2.49,0,0,1-.8-.1l-.3-.3c0-.1-.1-.3-.1-.4h-4.9a1,1,0,0,1-.8.7l-.5-.4v-.3H396.3l.1.1a1.57,1.57,0,0,1,.3,1.4l-.4.4h-1l-.4-.2c-.2-.5-.5-1.1-.1-1.6H384.4l.3.3a.75.75,0,0,1-.1.5.65.65,0,0,1-.5.2h-.4l-.4-.4v-.6h-1.5a.1.1,0,0,1,.1.1,1.91,1.91,0,0,1,.3,1.7l-.4.4h-.1a1.5,1.5,0,0,1-1.3-.9.35.35,0,0,0-.1-.2v-.5l.3-.3.2-.2h-2.1c.4.8.8,1.7,1.2,2.5h37a1.22,1.22,0,0,1-.3-.9l.4-.5h.6l.3.7h0v.1h0a.47.47,0,0,1-.1.6H609.7v80.7H467.6l-.4.4a1.59,1.59,0,0,1-1.2-.4H417.2q.45.3.3.6a.58.58,0,0,1-.6.6l-.4-.2a1.08,1.08,0,0,1-.2-.8l.3-.2H378.8c-.4.8-.8,1.7-1.3,2.5h60.8c-.2,0-.3-.1-.4-.3a1.08,1.08,0,0,1-.2-.8l.3-.3a1.51,1.51,0,0,1,.8.1c.1,0,.1,0,.1.1l.3.5a.67.67,0,0,1-.5.7H610.6a1.22,1.22,0,0,0,1.2-1.2V89.6ZM540.7,49h-.3l-.4-.3a.59.59,0,0,1,.1-.7.68.68,0,0,1,.6-.3h.4l.5.5C541.7,48.7,541.3,49,540.7,49Zm11,.3a.1.1,0,0,1-.1.1l-.5.3a.9.9,0,0,1-.6-.5c-.1-.3.2-.6.3-.8l.2-.2.6-.3a.82.82,0,0,1,.5.5A1,1,0,0,1,551.7,49.3Z"/><path id="_Compound_Path_3" data-name="&lt;Compound Path&gt;" class="cls-1" d="M397.5,66.2v2.5a1.75,1.75,0,0,1,1.7,1.1v.3l-.1.3a3.92,3.92,0,0,1-.8,1.4l-.5.1a.37.37,0,0,0-.3-.1v45.1h13.8a24.37,24.37,0,0,0,2.7-.1,2.13,2.13,0,0,1,0-.8v-.1a1.17,1.17,0,0,1,1.1-.7,1.69,1.69,0,0,1,1.5,1.3,27.27,27.27,0,0,0,4.1-1,22.9,22.9,0,0,0,7.9-4.5,21.36,21.36,0,0,0,5.4-7.9,30.35,30.35,0,0,0,2-11.5,30.35,30.35,0,0,0-2-11.5,23.48,23.48,0,0,0-3-5.4c0,.1-.1.1-.1.2s-.1.2-.2.3l-.7.2c-.1,0-.2-.1-.3-.1s-.4-.1-.6-.3l-.1-.6c0-.1.1-.2.1-.3a1.12,1.12,0,0,1,.7-.8,11.41,11.41,0,0,0-1.1-1.1,19.13,19.13,0,0,0-6.2-3.9h-.3l-.2-.2c-.4-.1-.8-.3-1.2-.4a30.14,30.14,0,0,0-9.6-1.4H397.5Zm34,17.3h0v-.4c.4,0,.6.3.6.8h0a1,1,0,0,1-.2.7.76.76,0,0,1-.5.2v-.5h-.2C431.3,84,431.6,83.9,431.5,83.5ZM400.9,95.7c-.9.2-.4-1,0-.4Zm-.1-10.9c-.1,0-.3-.1-.4-.1a.35.35,0,0,1-.2-.1l-.7-.4c.1-.8.4-.9.7-.9a1,1,0,0,1,.7.4l.2.2.2.4A.47.47,0,0,1,400.8,84.8Zm1.8,12.9h-.3l-.4-.5a1.22,1.22,0,0,1,1.2-1.2l.5.5C403.6,96.9,403.5,97.7,402.6,97.7Zm15.1,13.9c-.1.1-.1.1-.1.2l-.7.2a.58.58,0,0,0-.4-.1l-.5-.4c0-.2,0-.3-.1-.4a1.13,1.13,0,0,1,.3-1.1l.3-.1h0a1.56,1.56,0,0,1,.9.3c.1.1.1.1.2.1l.3.4A1.22,1.22,0,0,1,417.7,111.6Zm6.6-33a14.19,14.19,0,0,1,3,5.7,27.3,27.3,0,0,1,.9,7.2,26.77,26.77,0,0,1-.9,7.2,14.19,14.19,0,0,1-3,5.7,13.68,13.68,0,0,1-5.3,3.7,17.9,17.9,0,0,1-3.5,1,.85.85,0,0,1,0,.7l-.2-.2.4.7a1.39,1.39,0,0,1-1,.5,3.09,3.09,0,0,1-.8-.2l-.3-.3a1.45,1.45,0,0,1,.1-1v-.1a20.08,20.08,0,0,1-2.5.1H405V73.7h6.2a19.69,19.69,0,0,1,7.7,1.3A11.71,11.71,0,0,1,424.3,78.6Z"/><path id="_Path_" data-name="&lt;Path&gt;" class="cls-1" d="M431.8,84h0Z"/><path id="_Compound_Path_4" data-name="&lt;Compound Path&gt;" class="cls-1" d="M273.7,175.8a.6.6,0,0,0-.1-.4l.1-.8a3.18,3.18,0,0,0,.9-.3,4.85,4.85,0,0,1,2-.5l.3.1a.9.9,0,0,1,.4,1.1v.1l.3.4a1.37,1.37,0,0,1-.5,1l-.2.2-.4.1a91.64,91.64,0,0,0,19.1,2,89.1,89.1,0,0,0,37.9-8.4l-.6-3.3h-.1l-.1-.1a2.09,2.09,0,0,1-.6.4l-.5-.2a1.74,1.74,0,0,1-.2-1.8.45.45,0,0,0,0-.5l.7-.5h.2l-.1-.8a2.73,2.73,0,0,0-.9-1.2c-.1.2-.2.5-.1.6l-.3.7a1.31,1.31,0,0,1-1.2-.6h0l-.2.1-.4-.3a.76.76,0,0,1-.2-.5h-.1c-.2-.2-.2-.5-.1-.9a4.05,4.05,0,0,0,0-1.1l.1-.5a.4.4,0,0,1,.4-.2c.1,0,0,0,0,.1l.5-.4a1.76,1.76,0,0,1,1.3,1.2.76.76,0,0,1,.2.4h-.1l.2.1.3-.3-4.4-23a1.61,1.61,0,0,1-.3.9,2.4,2.4,0,0,1-2,1.2,2.76,2.76,0,0,1-2.2-1.4l-.1-.3a1.46,1.46,0,0,0-.2-1.2,1.82,1.82,0,0,1-.4-1.1l.4-.3c0,.1-.1.1-.1.2a.37.37,0,0,0,.1.3V136h.2v-.2l-.2-.3v-.1l-.1-.1a.85.85,0,0,1-.3-.5v-.1a1.3,1.3,0,0,1,1.2-1.3,1.76,1.76,0,0,1,1.3.6l.1.3a1.22,1.22,0,0,1-.3.9.37.37,0,0,0-.1.3h.2c.9,0,1.9.1,2.3.9a.37.37,0,0,1,.1.3l-7.4-38.8h-3.8v40.3h-14v-14a.1.1,0,0,0-.1-.1.6.6,0,0,1,.1-.4v-81h7.1a.86.86,0,0,1,.6-.3.35.35,0,0,0,.2-.1h.7a2.18,2.18,0,0,1,.4.5h5.1c16.6,0,23.9,9.6,23.9,27.6,0,9.5-2.5,18.1-7.8,21.7l.7,3.4c.1.1.1.2.2.2.2.2.3.3.4.3l.6.3a.44.44,0,0,1-.1.5l-.1.1V97l-.3.4h-.3l9.7,49.3c0-.1.1-.1.1-.2a2.19,2.19,0,0,1,.3-.5l.4-.2c.4.1.5.3.5.6v.1h.2c.3.1.6.1.8.5a1.25,1.25,0,0,1,.1.9l-.5.3c-.1,0-.1-.1-.3.1a1.21,1.21,0,0,1-.8.3h-.3l-.2-.2.9,4.5h.2c.3-.2.7,0,1,.2l.3.3a.71.71,0,0,1-.5.8l.1.3a.82.82,0,0,1-.6.4h-.1l1.7,8.8a93.93,93.93,0,0,0,13.2-11c-.3-.3-.3-.6-.2-.7.1-.4.8-.6,1.3-.3a89.58,89.58,0,0,0,19.9-32.8c-.1-.2-.3-.4-.4-.6v-.2a1.2,1.2,0,0,1,1.1-1.2,89.41,89.41,0,0,0-4.3-64.6l-.1.1h-.3c-.9,0-1.1-.8-1.2-1.3l.2-.5a.9.9,0,0,1,.5-.1,95.35,95.35,0,0,0-6.3-10.8l-.4.3c-.2.1-.3.4-.8.4a.76.76,0,0,1-.4-.1l-.2-.7a1,1,0,0,1-.1-.8h-.1a1.06,1.06,0,0,1-.1.8c-.1.2-.4.5-1.1.3l-.4-.4c0-.2,0-.3-.1-.4,0-.4-.1-.6,0-.9a2.77,2.77,0,0,0-.9-.1c-.2,0-.4-.1-.6-.1-.1.2-.2.5-.3.7s-.1.2-.2.3l-.3.3a2.57,2.57,0,0,1-1.4-.2c-.2-.1-.3-.1-.5-.2l-.4-.4a2,2,0,0,1,.3-1.6,1.66,1.66,0,0,1,2.2-.1c0-.2.1-.4.1-.6a.76.76,0,0,0,.1-.4l.2-.5a2.63,2.63,0,0,1,1.9-.3,99.13,99.13,0,0,0-8.7-9.6.62.62,0,0,1-.5-.3c-.1-.1-.1-.2-.2-.4A90.74,90.74,0,0,0,331.5,8.2h-.2l-.4-.2a6.9,6.9,0,0,0,.1-.7,89.51,89.51,0,0,0-76.9,2.9l2.1,6.5h.4l.3.6c-.1.2-.1.3-.2.4a.1.1,0,0,1-.1.1l12.2,37.3c.1,0,.2-.1.3-.1l.5.4v.2a.76.76,0,0,1,.2.5,1,1,0,0,1-.4.7l3.1,9.5.4,1.2h.5l.4-1.2,7.7-24.2h13.8l-.4,1.2h0a3.32,3.32,0,0,1-.4,2l-.3.2h0l-13.4,40a1.9,1.9,0,0,1,1.5.9v.5a9.25,9.25,0,0,0-.5,1c-.1.1-.1.3-.2.4.3-.1.6-.2.7-.6l.7-.2h.2a.76.76,0,0,1,.5.2l.2.3a4.15,4.15,0,0,1-.1,1.3c0,.3-.1.6-.1,1.2l-.4.4c-.2,0-.3.1-.5.1a4.87,4.87,0,0,1-1.2.1h-.3l7.4,23.9c.1,0,.2.1.3.1s.2.1.3.1l.4.4a.75.75,0,0,1-.1.5l.1.2a.54.54,0,0,1-.5.5l6.5,20.9h-1.8a1.58,1.58,0,0,1,.6,1.6l-.3.4c-.1,0-.3.4-.4.6s-.3.7-.6.9c.2.1.3.1.3.2h0a2.25,2.25,0,0,1,1.2-.1l.4.4a3.08,3.08,0,0,1-.1,1,.64.64,0,0,1,.6,0l.1.2c.2,0,.4.2.5.5a1.34,1.34,0,0,1,.1.5c0,.6-.4.6-.5.6-.3,0-.4-.2-.5-.4l-.3.2c-.1,0-.1,0-.1-.1l-.2.2a1.06,1.06,0,0,1-.8-.1v.3c-.1,0-.2.1-.4.1s-.7.1-.9.3v.1a.35.35,0,0,0,.1.2l-.1.9h0a2.9,2.9,0,0,0-2.3,1.5l-.5.2a.35.35,0,0,1-.2-.1,2.47,2.47,0,0,1-.9.4.47.47,0,0,1-.1.6c0,.1,0,.1.1.3l-.5.6a4.33,4.33,0,0,1-.5-.1,2.51,2.51,0,0,0-1-.1l-.2-.3-.1.2-.3.1v-.4h-.4c0,.1,0,.1.1.2h0l-.5-.1-.1-.1a2.09,2.09,0,0,1-.6.4l-.5-.2a1.74,1.74,0,0,1-.2-1.8.45.45,0,0,0,0-.5l.7-.5a.49.49,0,0,1,.3.1h.1a3.51,3.51,0,0,0-1.2-2c-.1.2-.2.5-.1.6l-.3.7a1.31,1.31,0,0,1-1.2-.6h0l-.2.1-.4-.3a.76.76,0,0,1-.2-.5h-.1c-.2-.2-.2-.5-.1-.9a4.05,4.05,0,0,0,0-1.1l.1-.5a.4.4,0,0,1,.4-.2c.1,0,0,0,0,.1l.5-.4a1.76,1.76,0,0,1,1.3,1.2.76.76,0,0,1,.2.4h-.1l.2.1a4,4,0,0,1,1.8-1.3c.8-.4,1.5-.7,1.7-1.5l.8-.1a.1.1,0,0,0,.1.1c.2,0,.4-.2.6-.3s.3-.2.5-.2a1.17,1.17,0,0,1,.6-.6l-.1-.1a2.09,2.09,0,0,1-.2-1.3h-7.7l-4.5-15.8a2.48,2.48,0,0,1-2.1-1.4l-.1-.3a1.46,1.46,0,0,0-.2-1.2,1.82,1.82,0,0,1-.4-1.1l.4-.3c0,.1-.1.1-.1.2a.37.37,0,0,0,.1.3v-.1h.2v-.6h.8l-2.3-8-.3-1.2h-.5l-.3,1.2L269,122a.91.91,0,0,1,.2,1.1,1.21,1.21,0,0,1-.7.7l-3.9,13.9h-7.1v.1l-.4.5h-1l-.4-.4v-.1h-4.9l2.1-6.8a1,1,0,0,1-.8-.4c-.2-.1-.2-.2-.4-.2l-.4-.4v-1.1l.4-.4c.1,0,.2-.1.4-.2a2.08,2.08,0,0,1,1.5-.4l.3.1h0l5.1-16.5a1.38,1.38,0,0,1-.4-.3,1.93,1.93,0,0,1-.3-1l.5-.3a.85.85,0,0,1,.6.3l3.4-11-.1.1a2.19,2.19,0,0,1-.5-.3l-.4-.6c.1-.3.3-.5.5-.5h.2l.2-.1a.62.62,0,0,1,.5.3l3.3-10.7-2.7-8.2h-.1l-.3-.8a.37.37,0,0,1,.1-.3L246.6,27.4h-.1a1.21,1.21,0,0,1-.8-.3.31.31,0,0,0-.2-.1l-.3-.4v-1l.2-.4a1.69,1.69,0,0,1,.5-.2l-2.7-8a88.2,88.2,0,0,0-12.1,10.7l.2.2v.2a1.45,1.45,0,0,1-.2.7c-.2.3-.4.5-.7.5a3.93,3.93,0,0,1-.6-.2,89.35,89.35,0,0,0,44.3,146.7C273.7,175.9,273.7,175.8,273.7,175.8Zm48-30.9a5.65,5.65,0,0,0,0,1.3l-.3.5a3.87,3.87,0,0,1-.9.1,1.49,1.49,0,0,0-.6.1l-.5-.2a1.79,1.79,0,0,1-.4-1.3,1.27,1.27,0,0,0-.1-.6l.2-.4a4.71,4.71,0,0,0,1-1,2.65,2.65,0,0,1,.5-.6l.6-.1C321.8,143.2,321.7,144.1,321.7,144.9Zm.5-19.6c.2,0,.3.1.5.1s.1,0,.2.1l.3.5a2.19,2.19,0,0,1-.3.5l-.7.4-.3-.3-.5-.6C321.6,125.4,322,125.3,322.2,125.3Zm-1.6,5.4c.1,0,.1,0,.2-.1s.3-.1.4-.1c.4,0,.7.3.7.9l-.2.2v.3l-.6.3-.1-.1a1.36,1.36,0,0,1-.7-.9l-.2.3.1.2c-.1.1-.2.4-.6.4s-.4-.2-.5-.4l-.1-.1-.6-.3a1.52,1.52,0,0,1,.3-1.3l.3-.2h.2a1.12,1.12,0,0,1,1.2,1Zm-1.8-14.9a.76.76,0,0,1,.5.2h.1a.55.55,0,0,1,.5.3c.2.3,0,.6-.1,1a.35.35,0,0,1-.1.2l-.4.4c-.9,0-.8-.9-.8-1.4v-.2l.3-.4Zm-2.5-9.1h0l.2-.7c.6.1,1.7.3,1.9,1a1.38,1.38,0,0,1-.3,1.2l-.8-.2c0-.2-.2-.2-.6-.4-.1,0-.2-.1-.3-.1l-.3-.4C316.2,106.9,316.3,106.8,316.3,106.7Zm64.5,6.6.6.3a.44.44,0,0,1-.1.5l-.1.1v.1l-.3.4a.82.82,0,0,1-.7-.1,1.32,1.32,0,0,1-1,.7H379a2.11,2.11,0,0,1-1.3-1.6,1.28,1.28,0,0,1,.6-1.4l.2-.1a2.05,2.05,0,0,1,1.8.8C380.6,113.2,380.7,113.3,380.8,113.3Zm-1.8-4.9-.5-.4v.1c0-.1-.2-.2-.3-.3a1.85,1.85,0,0,1-.7-1.2,1.45,1.45,0,0,1-.2-.7l.4-.4h.4a1.34,1.34,0,0,1,.8-.2,1.52,1.52,0,0,1,1.4,1.5A1.47,1.47,0,0,1,379,108.4Zm-1.7-21.6.2-.3a2.62,2.62,0,0,1,2.3.2l.2.2a1.55,1.55,0,0,1-.2,1.2v.1l.1.2a.66.66,0,0,1-.7.6,1.42,1.42,0,0,1-.6-.2c-.1,0-.1-.1-.2-.1h0c.2,0,.3-.1.3-.2l-.8.1c-.1-.1-.1-.2-.2-.3A1.93,1.93,0,0,1,377.3,86.8Zm-29.2,47.6h-.2a.85.85,0,0,1-.6.2h-.2l-.3-.2-.2-.2c-.2-.3-.3-.4-.5-.4l-.4-.5a4.23,4.23,0,0,1,.4-1.2V132l.5-.3c1.5.2,1.6.6,1.9,2Zm2-99.6c0,.1.1.1.2.1a1.23,1.23,0,0,1,.7,1.3l-.1.3a1.14,1.14,0,0,1-.8.3,1.74,1.74,0,0,1-1.2-.6l-.1-.1-.1-.6a.37.37,0,0,0,.1-.3l.5-.4h.2a.35.35,0,0,0-.1.2ZM349,69.7a1.27,1.27,0,0,1-.1,1.1.1.1,0,0,1-.1.1.37.37,0,0,0-.1-.3l.2.7a.87.87,0,0,1-.7.4,1.07,1.07,0,0,1-.9-.7,1.86,1.86,0,0,1,.1-1.9l.4-.2a.6.6,0,0,1,.5.6Zm.1,42a.83.83,0,0,1-.8.3l-.5-.5c0-.2.1-.3.2-.3l.4-.4h.4l.4.3A.56.56,0,0,1,349.1,111.7Zm1.8,31.3h0l-.6.1-.3-.3-.5-.4a1.1,1.1,0,0,1,0-.8c-.1-.1-.2-.2-.2-.3-.1-.3.2-.5.3-.6l.1-.1a.14.14,0,0,0,0,.2l.1-.1.5-.4a2.36,2.36,0,0,1,.9.8.78.78,0,0,0,.4.4l.2.2a.59.59,0,0,1-.1.7c-.2.3-.5.3-.6.4S350.9,143,350.9,143Zm1.8,14.2-.5.4H352c-.3-.1-1-.2-.9-1l.4-.4c.5-.1.8,0,1,.3C352.7,156.6,352.7,156.9,352.7,157.2Zm1.5-30.6a.59.59,0,0,0-.2.5l-.7.2s-.1-.1-.5-.1h-.3l-.5-.4c0-.2-.1-.3-.2-.5a1.52,1.52,0,0,1-.2-1.4l.2-.3a2.87,2.87,0,0,1,2.2-.2l.3.3C354.6,125.9,354.5,126.3,354.2,126.6Zm1.7-6.7-.2.3a2.24,2.24,0,0,1-1,.3,1.88,1.88,0,0,1-.8-.2c-.3-.1-.5-.2-.7-.1l-.5-.2a1.27,1.27,0,0,1-.1-.6l-.3.2a.51.51,0,0,1-.5-.4l-.1.1a.65.65,0,0,1-.2-.9.93.93,0,0,1,1.7-.1,1.33,1.33,0,0,0,.3-.8l.5-.4c.2,0,.3,0,.4-.1a1.55,1.55,0,0,1,1-.1l.3.2A4,4,0,0,1,355.9,119.9Zm-2.8-53c-.1,0-.3-.1-.4-.1a.35.35,0,0,1-.2-.1l-.7-.4c.1-.8.4-.9.7-.9a1,1,0,0,1,.7.4l.2.2.2.4A.47.47,0,0,1,353.1,66.9Zm.1,10.5v.4C352.3,78,352.9,76.8,353.2,77.4Zm6,47.1h0a.72.72,0,0,1-.7.4h-.2l-.3-.3c0-.1-.1-.2-.2-.3a1,1,0,0,1-.1-1.4,1.63,1.63,0,0,1,1.5-.3l.4.5c0,.2,0,.3.1.4a.61.61,0,0,1,.1.6Zm5.8-12.1v.2h-.2a1.08,1.08,0,0,1-.7-.3,3.22,3.22,0,0,1-.6-2.1l.4-.4a1.44,1.44,0,0,1,1.5.6,2.09,2.09,0,0,0,.6.4l.2.2c.2.3.2.5.1.6s-.1.2-.2.3a.37.37,0,0,1-.1.3.91.91,0,0,1-.8.3H365Zm2-5.5a.1.1,0,0,0-.1-.1h0l.3.7a1.14,1.14,0,0,1-.8.3,1.19,1.19,0,0,1-.9-.5,1.79,1.79,0,0,1-.4-1.4l.3-.3a1,1,0,0,1,1.3.4h0a.6.6,0,0,1,.6.3.76.76,0,0,1-.1.7.1.1,0,0,1-.1.1C367,107.1,367,107,367,106.9Zm.3,28.3a.35.35,0,0,1-.1.2l-.4.4c-.9,0-.8-.9-.8-1.4v-.2l.3-.4h.2a.76.76,0,0,1,.5.2h.1a.55.55,0,0,1,.5.3C367.7,134.5,367.5,134.9,367.3,135.2Zm1.4-15.5a.68.68,0,0,1-.6.4,1.42,1.42,0,0,1-.6-.2l-.1-.7c.1-.1.1-.2.1-.4l.7-.4C368.6,118.8,368.9,119.3,368.7,119.7ZM368,73.4a.6.6,0,0,1-.4-.1l-.2-.4v-.6l.4-.4a.4.4,0,0,1,.4.2h0a.73.73,0,0,1,.6.6A.77.77,0,0,1,368,73.4Zm5.4,36.3a2.39,2.39,0,0,1-.3,1.5l-.4.1a.59.59,0,0,1-.5-.2h-.1l-.5-.4a1.52,1.52,0,0,1,.3-1.3l.4-.2h.8Zm-2.1-37.8v-.1l.4-.5h.6l.3.7c0,.2.1.4.1.6l-.4.5h-.1a.59.59,0,0,1-.5-.2h-.1l-.5-.4C371.1,72.3,371.3,72.1,371.3,71.9Zm-4.2-12,.2-.3a1.33,1.33,0,0,1,.8-.3h0V58l.5-.4h.7a1.49,1.49,0,0,1,1.3.6l.1.3v1.3l-.4.4h-.2a.37.37,0,0,1,.1.3c0,.1-.1.2-.1.3v.1l.1.8h-.1v.4l-.5.5h-.7a1.72,1.72,0,0,1-.8-.2l-.3-.4a.91.91,0,0,0-.3-.7A3.35,3.35,0,0,1,367.1,59.9Zm.2,30.9.4.3a3.22,3.22,0,0,1,.1.8l-.2-.2.4.7a1.39,1.39,0,0,1-1,.5,3.09,3.09,0,0,1-.8-.2l-.3-.3a1.45,1.45,0,0,1,.1-1,.37.37,0,0,0,.1-.3l.7-.3c-.1,0-.1.1-.2.1C366.8,90.9,367,90.8,367.3,90.8ZM362,39.6c.2-.9,1.9-1,2.2-1h.1l.4-.3-.1.1.5-.3c.4.1.5.3.5.6h0c.5.4.8.8.8,2.1l-.6.4a1,1,0,0,1-.3.1,2.35,2.35,0,0,1-.8.2,1,1,0,0,1-.9-.6.76.76,0,0,1-.5.2l-.2-.1C362.8,40.9,361.8,40.4,362,39.6ZM360.8,102l.4-.4h1l.4.5-.1-.1.3.5a.85.85,0,0,1-.8.7,1.49,1.49,0,0,1-.9-.4A1.6,1.6,0,0,1,360.8,102Zm-3.5-49.7.1-.2.3-.3a2.17,2.17,0,0,1,2.1.2c.1.1.2.1.4.2l.3.5a2,2,0,0,1-1.9,1.8,1.5,1.5,0,0,1-1.1-.4l-.2-.3A2.53,2.53,0,0,1,357.3,52.3Zm0,7.3h.7a1.81,1.81,0,0,1,.7,1.9l-.3.4c-.2,0-.3.1-.5.1a1.39,1.39,0,0,1-1.3-.8c0-.1-.1-.1-.1-.2l-.1-.3a1.08,1.08,0,0,1,.8-.9C357.1,59.7,357.2,59.7,357.3,59.6Zm-2-23.9a1.77,1.77,0,0,1,.7-1.1l.6.2a2.89,2.89,0,0,1-.3,2.7h-.7A3.25,3.25,0,0,1,355.3,35.7Zm.2,42.4.5.5c-.1.4-.2,1.2-1,1.2h-.3l-.4-.5A1.22,1.22,0,0,1,355.5,78.1Zm-2.8-32.7.2.2a2,2,0,0,1,.8-.1l.3.1c.5.6.7,1.2.4,1.7a1.15,1.15,0,0,1-1.1.6,2.66,2.66,0,0,1-1.2-.3l-.2-.4v-.5a1.49,1.49,0,0,1-.7-.3,1.92,1.92,0,0,1-.3-1.2l.1-.3h0l-.1-.1a1.27,1.27,0,0,1,0-1.2l.3-.2a1.25,1.25,0,0,1,1.1.4,1.37,1.37,0,0,1,.3,1.3l-.2.2A.37.37,0,0,0,352.7,45.4ZM351.1,37l.7-.2.3.3c.1.1.2.2.3.2l.3.6a.75.75,0,0,1-.7.5,1.23,1.23,0,0,1-.8-.4A.92.92,0,0,1,351.1,37Zm-2.6-13.3a1.09,1.09,0,0,0,.1-.5l.4-.5a1.48,1.48,0,0,1,1.6.9c.1.1.2.3.3.4l.1.2c0,.3,0,.4-.1.5a1.1,1.1,0,0,1-.6.3h-.1l-.1.4c-.1.1-.2.1-.4.1a1,1,0,0,1-.7-.4l-.2.1C348.1,24.9,348.3,24.2,348.5,23.7Zm-.8,3.5.3-.2h.2a.59.59,0,0,1,.5.2l.4.4a.75.75,0,0,1-.1.5.6.6,0,0,1-.6.3.67.67,0,0,1-.7-.4A.6.6,0,0,1,347.7,27.2Zm-.5,2,.3-.1a1.23,1.23,0,0,1,1,.5,1.57,1.57,0,0,1,.3,1.4l-.4.4h-1l-.4-.2C346.8,30.5,346.5,29.8,347.2,29.2Zm-.6,95.2a1.29,1.29,0,0,1,.2.8l-.6.3-.1-.1h-.2a1.49,1.49,0,0,1-.6-.1l-.3-.6A1.06,1.06,0,0,1,346.6,124.4Zm-2.2,11.7a1.71,1.71,0,0,1,2-1.2l.4.3a1.45,1.45,0,0,1-.1,1,.9.9,0,0,0-.1.5l-.5.5H345a.91.91,0,0,1-.8-.4v-.5C344.3,136.4,344.3,136.2,344.4,136.1Zm-4.6-43.2-.4.3h-1l-.4-.4a3.4,3.4,0,0,1,.1-1l-.2-.3c.3-.7,1.2-.7,1.7,0A1.37,1.37,0,0,1,339.8,92.9Zm3.3,44.1a.88.88,0,0,1,.4,1l-.3.3-.1.1c-.3.1-.7.3-1.1.4l-.5-.4v-1.3l.7-.3a.1.1,0,0,0-.1.1.85.85,0,0,1,.6-.2ZM341.5,24.2v.4c.4,0,.8.5.8,1.8a2.49,2.49,0,0,1-.8.1V27a1.59,1.59,0,0,1-1.2-.4,1.14,1.14,0,0,1-.3-.8A1.56,1.56,0,0,1,341.5,24.2ZM337.6,35l.3-.1c0-.1,0-.2.1-.2l.1-.1v-.2a1,1,0,0,0-.1-.3l-.1-.4c.1-.3.3-.5.5-.5a2,2,0,0,1,2.5-.2l.2.3v1.3l-.3.4c-.2.1-.3.1-.4.2s-.3.1-.5.2l.2.6a1.43,1.43,0,0,1-1.2.6.91.91,0,0,1-.8-.4C337.8,36.1,337.5,35.7,337.6,35Zm-1.2-19.9a1.27,1.27,0,0,1,.9.4,1.06,1.06,0,0,1,.1.8l-.3.3c-.1,0-.3.1-.4.1a1.51,1.51,0,0,1-.9-.4l-.1-.1-.1-.5A.76.76,0,0,1,336.4,15.1ZM332.3,44l.4-.4h.8l.4.3a.59.59,0,0,1-.1.7.68.68,0,0,1-.6.3h-.4l-.5-.4V44ZM318.2,23.4a1,1,0,0,1-.3.1,2.35,2.35,0,0,1-.8.2,1,1,0,0,1-.9-.6.76.76,0,0,1-.5.2l-.2-.1c-.3-.2-1.3-.7-1.1-1.5s1.9-1,2.2-1h.1l.4-.3-.1.1.5-.3c.4.1.5.3.5.6h0c.5.4.8.8.8,2.1Zm9.3,8.6a2.54,2.54,0,0,1,.7-.2,1,1,0,0,1,1,1.1l-.4.5c.1,0,.2-.1.3-.2a.37.37,0,0,1-.1.3l-.3.3h-.3c-.9,0-1.1-.8-1.2-1.3ZM325.6,9.2l.6-.4a1.09,1.09,0,0,1,.7,1l-.4.4h-.2a.59.59,0,0,1-.5-.2l-.4-.6A.22.22,0,0,1,325.6,9.2ZM323,40.4v1.3l-.4.4h-.4a3.36,3.36,0,0,1-1.6-.5l-.2-.4V39.9l.5-.4h.7a1.49,1.49,0,0,1,1.3.6Zm-1.8-28.6.1.2.1.4a1.83,1.83,0,0,1-1.9,1.5h-.4l-.3-.1a2,2,0,0,1,0-2.8l.3-.2A1.76,1.76,0,0,1,321.2,11.8Zm.3,2.4v.6l-.7.4h0a.37.37,0,0,0-.3-.1l-.5-.5c0-.2.1-.3.2-.3l.4-.4h.4Zm-1.2-4.7-.4.4h-.2a1,1,0,0,1-.8-.3,1.08,1.08,0,0,1-.2-.8l.5-.4h.1C319.6,8.5,320.4,8.6,320.3,9.5Zm-2.6-3.7c.1-.1.2-.1.2-.2l.4-.3a.93.93,0,0,1,.7.4l.5.4a1.13,1.13,0,0,1-.3,1.1.31.31,0,0,0-.1.2l-.4.3h-.4a1.27,1.27,0,0,1-1.3-.9V6.6A1.9,1.9,0,0,1,317.7,5.8Zm-3.9,12.6a1.66,1.66,0,0,1,2.2-.1c0-.2.1-.4.1-.6a.76.76,0,0,0,.1-.4l.2-.5a4,4,0,0,1,2.4-.3l.4.3c.3.7.3.8.5.9l.1.7c0,.1-.1.2-.1.3h.1c.5.1.6.6.6,1h.3a.35.35,0,0,0-.1.2l.5-.4c.9.1.8,1,.8,1.4l-.6.4c-.2.1-.3.4-.8.4a.76.76,0,0,1-.4-.1L320,21a1,1,0,0,1-.1-.8h-.1a1.06,1.06,0,0,1-.1.8c-.1.2-.4.5-1.1.3l-.4-.4c0-.2,0-.3-.1-.4,0-.4-.1-.6,0-.9a2.77,2.77,0,0,0-.9-.1c-.2,0-.4-.1-.6-.1-.1.2-.2.5-.3.7s-.1.2-.2.3l-.3.3a2.57,2.57,0,0,1-1.4-.2c-.2-.1-.3-.1-.5-.2l-.4-.4A1.88,1.88,0,0,1,313.8,18.4Zm-2.1,3c.2-.3.5-.3.6-.4h.1a.1.1,0,0,0-.1.1l.4-.3c1.1,0,1.2,1.1,1.2,1.6l-.2.4a3.09,3.09,0,0,1-.8.2,1.44,1.44,0,0,1-1.3-.8A1,1,0,0,1,311.7,21.4Zm.3,12.7c.1.1.2.1.4.2l.3.5a2,2,0,0,1-1.9,1.8,1.5,1.5,0,0,1-1.1-.4l-.2-.3a3.55,3.55,0,0,1,.1-1.5l.1-.2.3-.3A2.25,2.25,0,0,1,312,34.1ZM308.9,5.5l.4-.3h.8l.4.4v.8l-.3.4c-.2,0-.3.1-.4.1a.91.91,0,0,1-.7-.3A1.39,1.39,0,0,1,308.9,5.5Zm-1.3,12.3a1.77,1.77,0,0,1,.7-1.1l.6.2a2.89,2.89,0,0,1-.3,2.7H308A2.56,2.56,0,0,1,307.6,17.8Zm-.4,3.9.2-.3a1.92,1.92,0,0,1,2.5,1,1.73,1.73,0,0,1-.8,1.9l-.3.1a2.37,2.37,0,0,1-1.5-.8A3.05,3.05,0,0,1,307.2,21.7Zm-4,4.1.3-.2a1.25,1.25,0,0,1,1.1.4,1.37,1.37,0,0,1,.3,1.3l-.3.4h-.4a1.08,1.08,0,0,1-1.1-.7A1.63,1.63,0,0,1,303.2,25.8Zm-36.6,1.8c-.1.1-.1.1-.1.2l-.5.3a.52.52,0,0,1-.4-.2h-.3l-.2-.1a.76.76,0,0,1-.2-.4c0-.1,0,0,.1,0l-.4-.4a.85.85,0,0,1,.2-.6l.1-.1h-.1l-.4-.5a.55.55,0,0,1,.5-.6.52.52,0,0,1,.4.2l.1.1.6.4V26l.3.3.1.1-.1-.1.6.4A1.56,1.56,0,0,1,266.6,27.6Zm.6-14c0,.2-.2.3-.3.4l.1.1a.64.64,0,0,1-.9.1v.1l-.5.5c-.2,0-.3-.1-.5-.1a1.48,1.48,0,0,0-.7-.1l-.5-.3a.87.87,0,0,1,.5-1.2.1.1,0,0,0,.1-.1l.7-.4a.56.56,0,0,0,.6.1l.2.5a.78.78,0,0,1,.4-.4h.4C267.2,13.1,267.3,13.4,267.2,13.6Zm2.1.5-.2-.4a1.14,1.14,0,0,1,.3-.8,1.92,1.92,0,0,1,1.2-.4h.5l.4.5a1.41,1.41,0,0,1-1.4,1.3A2.35,2.35,0,0,1,269.3,14.1Zm2.3,27.2a.76.76,0,0,1-.8.6h-.2l-.4-.4a1.52,1.52,0,0,1,.3-1.3l.5-.1A1.14,1.14,0,0,1,271.6,41.3Zm.2-2.9a3.44,3.44,0,0,1-.1.9l-.4.4h-1l-.2-.4c-.1-.1-.3-.2-.4-.4v-.2c.2-.9,1.1-1,1.7-1.1l.5.5Zm1.9-7.6v.1a.1.1,0,0,0-.1.1c-.1.1-.1.2-.1.5h-.1V32a.73.73,0,0,1-.8-.8,1.18,1.18,0,0,1,1.1-1.1v.5h.1C273.7,30.6,273.7,30.7,273.7,30.8Zm2.3-7.9-.5.6c-.4-.2-.7-.4-.7-.7s.1-.6.4-.9h.5c.5.3.3.7.3.9Zm.4,2.1c-.2-.2-.1-.6.2-1.1l.6-.2.1.1c-.3,0-.4.1-.4.2l.7-.3A1.25,1.25,0,0,1,278,25c-.1.4-.5.6-1.1.6l-.3-.6Zm2,22c-.2.3-.4.5-.7.5a.86.86,0,0,1-.6-.3l-.1-.4c0-.1,0-.1.1-.1a.19.19,0,0,1,0-.3.87.87,0,0,1,.9-.6.84.84,0,0,1,.7.4v.2A3.33,3.33,0,0,0,278.4,47Zm22.3,125c-.1.1-.1.2-.2.3l-.5.3c-.2,0-.9-.2-.7-1.3l.4-.4h.8l.4.6C300.9,171.7,300.8,171.8,300.7,172Zm2.7-33.4.4-.4c.5-.1.8,0,1,.3a1.08,1.08,0,0,1,.2.8l-.5.4h-.2C304,139.6,303.3,139.5,303.4,138.6Zm-2,9.8-.1.2-.3.2h-.3a1.33,1.33,0,0,1-1-.4c-.2-.1-.2-.2-.4-.2l-.4-.4v-1.1l.4-.4c.1,0,.2-.1.4-.2a2.08,2.08,0,0,1,1.5-.4l.3.1A2.09,2.09,0,0,1,301.4,148.4Zm-.7-55.5h.4l.4.3a.56.56,0,0,1-.1.6.83.83,0,0,1-.8.3l-.5-.5c0-.2.1-.3.2-.3Zm-1.9-51.2.6-.3a1.27,1.27,0,0,1,.8.8.67.67,0,0,1-.3.8l-.5.1C298.8,42.9,298.5,42.6,298.8,41.7Zm-.2,72.5.5-.3c1.5.2,1.6.6,1.9,2l-.5.5h-.2a.85.85,0,0,1-.6.2h-.2l-.3-.2-.2-.2c-.2-.3-.3-.4-.5-.4l-.4-.5a4.23,4.23,0,0,1,.4-1.2Zm-1.2-87.7c.4-.1.8,0,.9.8l-.5.5h.1l-.2.2c-.5-.1-.5-.6-.6-.8v-.1Zm1.3,90.5.4.3a1.45,1.45,0,0,1-.1,1,.9.9,0,0,0-.1.5l-.5.5h-1.1a.91.91,0,0,1-.8-.4v-.5c.1-.1.1-.2.2-.3A1.69,1.69,0,0,1,298.7,117ZM284.6,26.5v-.4l.4-.4h.8l.4.3a.59.59,0,0,1-.1.7.68.68,0,0,1-.6.3h-.4Zm1.9,13.2-.4.2h-.4l-.4-.5v.2l-.2-.2a.75.75,0,0,1,.1-.5.85.85,0,0,1,1.3.1A.48.48,0,0,1,286.5,39.7Zm2.6-25.4H289c-.6,0-.7-.6-.7-.8v-.1a.35.35,0,0,0,.2.1l-.4-.6a.47.47,0,0,1,.5-.4.4.4,0,0,1,.4.2,2.22,2.22,0,0,1,.5,1.1Zm1.7,1.1-.4.3a.85.85,0,0,1-.6-.3.88.88,0,0,1,.2-1l.4-.3a.85.85,0,0,1,.6.3C291.2,14.7,290.9,15.2,290.8,15.4Zm4.1-11.7h-.2c-.1.3-.3.3-.5.3a.37.37,0,0,1-.3-.1l-.3-.4v-1l.6-.4.2.1a1.5,1.5,0,0,1,.9.7l.1.3A.47.47,0,0,1,294.9,3.7Zm.4,80.2.1-.1.5-.6c.2,0,.3.1.3.2l.4.4v.4l-.5.4.1-.1-.5.3a.47.47,0,0,1-.5-.3A.56.56,0,0,1,295.3,83.9ZM290.6,82l-.2.3a2.35,2.35,0,0,1-.8.2.75.75,0,0,1-.5-.1c-.1,0-.3-.1-.4-.1l-.4-.3c-.1-.2,0-.4,0-.5l-.2-.2c0-.4.2-.8,1.1-.8h.9l.5.5C290.6,81.3,290.8,81.5,290.6,82Zm3.2,38.3V119l.7-.3a.1.1,0,0,0-.1.1.85.85,0,0,1,.6-.2l.5.5a.88.88,0,0,1,.4,1l-.3.3-.1.1c-.3.1-.7.3-1.1.4Zm1.6,9.8-.3-.4c0-.2-.1-.3-.3-.5s-.1-.2-.2-.2l.4-.7h-.1a1.44,1.44,0,0,1,.2-.3,2.19,2.19,0,0,1,.3-.5l.4-.2c.4.1.5.3.5.6v.1h.2c.3.1.6.1.8.5a1.25,1.25,0,0,1,.1.9l-.5.3c-.1,0-.1-.1-.3.1a1.21,1.21,0,0,1-.8.3C295.7,130.2,295.6,130.1,295.4,130.1Zm.1,5.5a1.13,1.13,0,0,1,.3-1.1l.3-.1h.2c.3-.2.7,0,1,.2l.3.3a.71.71,0,0,1-.5.8l.1.3a.82.82,0,0,1-.6.4A1.48,1.48,0,0,1,295.5,135.6Zm-2.7,35.2.4-.4c.5-.1.7.1.8.3a1,1,0,0,1,.2,1l-.4.4h-.6l-.4-.4Zm-13.6-15,.8-.3a5,5,0,0,0,.8.7l.2.5c-.2.6-.5.6-.7.6s-.5-.2-.8-.3a1.44,1.44,0,0,0-.3-.2l-.3-.6C278.9,156.1,279.1,155.9,279.2,155.8Zm-4.3-14.4h0l-.1-.7a1.78,1.78,0,0,1,2.4,1.3l-.1.3c-.1.1-.2.2-.3.2h0a.66.66,0,0,1-.5.4c-.2,0-.3-.1-.5-.2a.66.66,0,0,0-.6-.1l-.6-.4A6.9,6.9,0,0,1,274.9,141.4ZM260.6,97.7c0,.4-.1,1.2-1,1.2h-.1l-.3-.7c0-.1.1-.1.1-.2a.89.89,0,0,1-.4-.8l.4-.3v-.1l.4-.4h.2a.59.59,0,0,1,.5.2l.4.7C260.7,97.3,260.6,97.5,260.6,97.7Zm-.9-19.6a1.69,1.69,0,0,0,.3-1l.3-.4a1.23,1.23,0,0,1,1.2.4c.1.1.1.1.2.1l.3.3c.2.7-.4,1.1-.7,1.3h0a.6.6,0,0,1-.5.5.76.76,0,0,1-.5-.2.35.35,0,0,1-.2-.1l-.5-.6A.44.44,0,0,0,259.7,78.1Zm.5,13.7v.4a3,3,0,0,1,1.3.4c-.1.6.3.6.2,1.1a1.88,1.88,0,0,1-1.3.7V95a1.28,1.28,0,0,1-1-.4,1.9,1.9,0,0,1-.5-1.3A1.27,1.27,0,0,1,260.2,91.8Zm-5.1-22.1c-.1-.5.4-.6.7-.7v-.1a.62.62,0,0,1,.6-.4.86.86,0,0,1,.6.3,1.64,1.64,0,0,1,.2,1.2l-.5.3v.1a.89.89,0,0,1-.8.6.6.6,0,0,1-.4-.1l-.2-.2c-.4-.4-.2-.7-.2-1Zm-13.6-7.1h.9l.5.5a1.36,1.36,0,0,1,.2,1l-.2.3a2.35,2.35,0,0,1-.8.2.75.75,0,0,1-.5-.1c-.1,0-.3-.1-.4-.1l-.4-.3c-.1-.2,0-.4,0-.5l-.2-.2C240.4,63,240.6,62.6,241.5,62.6Zm-7.1-33.5.5-.4c.6.1.8.5.7.8a.67.67,0,0,1-.6.7l-.4-.2A1.34,1.34,0,0,1,234.4,29.1Zm0,39.4V69a9.25,9.25,0,0,0-.5,1c-.1.1-.1.3-.2.4.3-.1.6-.2.7-.6l.7-.2h.2a.76.76,0,0,1,.5.2v.1h.1a1,1,0,0,1,.9,1.1l-.5.4h-.1a.76.76,0,0,1-.4-.1v.2c0,.3-.1.6-.1,1.2l-.4.4c-.2,0-.3.1-.5.1a4.87,4.87,0,0,1-1.2.1h-.5l-.4-.5.1.1-.3-.3a1.1,1.1,0,0,1,0-.8,3.13,3.13,0,0,1-1,.5h-.1a1.4,1.4,0,0,1-1.2-.8c-.2-.3-.2-.4-.4-.4l-.3-.5c.2-1.3,1.7-3,3.2-3A2,2,0,0,1,234.4,68.5Zm1.4,28.1a1.23,1.23,0,0,1-1,.5,1.14,1.14,0,0,1-.8-.3l-.2-.3c0-.4,0-.8.3-1a1.71,1.71,0,0,1,1.5-.4l.4.3A1,1,0,0,1,235.8,96.6Zm-2.7-39.2a1.42,1.42,0,0,1-1.5,1.5v-.5a3.46,3.46,0,0,1-1.2-.3c0-.7.2-.8.2-1.3a1.37,1.37,0,0,1,1.1-.4v-.5a1,1,0,0,1,.9.4A1.61,1.61,0,0,1,233.1,57.4Zm-.7-10.6.4.5v-.1l.2.2a.93.93,0,0,1-.4.7l-.4.5c-.2,0-.3-.1-.5-.2a.78.78,0,0,1-.1-.8v-.2l.4-.6Zm-1.3-7.2.2.4v-.4h.1l.5.5a.85.85,0,0,1-.8.7.91.91,0,0,1-.7-.3l-.1-.4C230.3,39.8,230.6,39.6,231.1,39.6Zm-2.2,1.2a1.76,1.76,0,0,1,.1-.6l.4-.2a1,1,0,0,1,.8,1,.9.9,0,0,1-.9.9.6.6,0,0,1-.4-.1l-.2-.7C228.9,40.9,228.9,40.9,228.9,40.8Zm-8.8,14.5.2.4v-.4h.1l.5.4v.6l-.3.4h-.3a.93.93,0,0,1-.7-.4l-.4-.5A.94.94,0,0,1,220.1,55.3Zm-8.7,38.3a.87.87,0,0,1-.7-.4,1.93,1.93,0,0,1-.3-1l.5-.3a1.58,1.58,0,0,1,.8.5c0,.1.1.1.2.2l.1.5A.69.69,0,0,1,211.4,93.6Zm1.5-13.8c0,.4-.1,1.2-1,1.2h-.1l-.3-.7c0-.1.1-.1.1-.2a.89.89,0,0,1-.4-.8l.4-.3v-.1l.4-.4h.2a.59.59,0,0,1,.5.2l.4.7C213,79.4,212.9,79.6,212.9,79.8Zm1.1-3.9a1.88,1.88,0,0,1-1.3.7V77a1.28,1.28,0,0,1-1-.4,1.9,1.9,0,0,1-.5-1.3,1.37,1.37,0,0,1,1.4-1.4v.4a3,3,0,0,1,1.3.4C213.6,75.3,214.1,75.3,214,75.9Zm3.1,32.9-.1.2c-.5-.1-.5-.6-.6-.8v-.1l.3-.2h0v-.6c.3-.1.4.1.4.3h.4a.6.6,0,0,1-.1.4l.4.6C217.8,108.9,217.4,109,217.1,108.8Zm4.4-3.6a1.33,1.33,0,0,1-1.1.8,1.78,1.78,0,0,1-1-.4l-.1-.4a1.44,1.44,0,0,1,1.5-1.3l.3.1A1,1,0,0,1,221.5,105.2Zm2.8,25.7c-.2,0-.3-.1-.4-.1a.31.31,0,0,1-.2-.1l-.4.4a.85.85,0,0,1-.6-.3.88.88,0,0,1,.2-1l.4-.3a1.37,1.37,0,0,1,1.2.4,1,1,0,0,1,.2.7Zm2.1-26.3-.4-.4a1.93,1.93,0,0,1,.4-1.5c.1-.1.1-.2.2-.3l.5-.2a1.15,1.15,0,0,1,1,1.2,1.52,1.52,0,0,1-1.5,1.2Zm1.7,20.3a.66.66,0,0,0-.6-.1l-.6-.4a1.14,1.14,0,0,1,.3-.7v-.1l-.1-.6a1.78,1.78,0,0,1,2.4,1.3l-.1.3c-.1.1-.2.2-.3.2h0a.66.66,0,0,1-.5.4C228.4,125,228.3,124.9,228.1,124.9Zm2.6,24-.3.3-.4.2a.7.7,0,0,1-.5-.4.62.62,0,0,1-.6-.4v-.2a2.63,2.63,0,0,1,.7-1.5l.2-.1a.93.93,0,0,1,1.1.6c0,.1.1.1.1.2l.5.6A1.78,1.78,0,0,1,230.7,148.9Zm1.2-9.8a1.44,1.44,0,0,0-.3-.2l-.3-.6a2.19,2.19,0,0,1,.3-.5l.8-.3a5,5,0,0,0,.8.7l.2.5c-.2.6-.5.6-.7.6C232.3,139.5,232.1,139.3,231.9,139.1ZM236,150v.1c0,.2-.1.8-.7.8a.37.37,0,0,1-.3-.1l-.4-.6h-.2a.37.37,0,0,1-.3-.1h-.2c-.8.1-1.3-.1-1.4-.8l.4-.5h.8l.3-.3h.2l.4.2h0a3.18,3.18,0,0,1,.9-.3c.3,0,.8.1,1,1l-.5.5C235.9,150.1,236,150.1,236,150Zm2.8-5.6a1.58,1.58,0,0,0-.8.5,3,3,0,0,1-1.4.8h-.3c-.5-.2-.4-.5-.4-.6V145l-.1-.2a2,2,0,0,1,.9-1.3c.2-.1.4-.2.4-.5l.4-.3c1-.1,1.6.3,1.6,1.2Zm1.1-47.3a1.78,1.78,0,0,1,1.1.1c.1,0,.2.1.3.1l.4.4a.75.75,0,0,1-.1.5l.1.2c-.1.3-.3.5-.5.5h0l-.5.2-.1-.1c.3,0,.4-.1.4-.2l-.6.3a1,1,0,0,1-.6-.9.37.37,0,0,0-.1-.3Zm2.2,53.2a4.25,4.25,0,0,1-1.1-.2,3.09,3.09,0,0,0-.8-.2l-.4-.4a1,1,0,0,1,.8-1.2c.3-.1.3-.1.3-.2l.5-.4a1.63,1.63,0,0,1,1.1.5c.2.2.3.3.6.2l.6.5C243.4,149.8,242.9,150.3,242.1,150.3Zm1.4-9.5a1.46,1.46,0,0,1-1.3,1.3l-.4-.1a.76.76,0,0,1-.2-.4c-.6,0-1-.6-1-1.4a1.59,1.59,0,0,1,.4-1.2,1.74,1.74,0,0,1,2.1-.5l.3.3a.82.82,0,0,0,.5.5l.2.7C243.7,140.1,243.6,140.4,243.5,140.8Zm-.4-19.3a4.4,4.4,0,0,1-1-.2l-.2-.2a2.46,2.46,0,0,1,0-2.1,1.75,1.75,0,0,1,1.4-.7,2.05,2.05,0,0,1,1.9,1.3v.3A2.31,2.31,0,0,1,243.1,121.5Zm3.5,32.2-.4.4h-.6l-.4-.4v-.8l.4-.4c.5-.1.7.1.8.3A1.44,1.44,0,0,1,246.6,153.7Zm1.5,10.9a.76.76,0,0,1-.5-.2,1,1,0,0,0,.3-.1.1.1,0,0,1-.1-.1l-.4.3c-.4-.2-.6-.7-.6-1.4l.4-.4h.2a.93.93,0,0,1,.9.6.35.35,0,0,0,.1.2l.2.4C248.7,164.6,248.2,164.6,248.1,164.6Zm.8-98.3-.5.4.1-.1-.5.3a.47.47,0,0,1-.5-.3.56.56,0,0,1,.1-.6l.1-.1.5-.6c.2,0,.3.1.3.2l.4.4v.4ZM253,154c-.1.1-.1.2-.2.3l-.5.3c-.2,0-.9-.2-.7-1.3l.4-.4h.8l.4.6A.59.59,0,0,1,253,154Zm11.5,6.5H264l-.4-.4v-.4l.4-.4a1,1,0,0,1,.9.2.85.85,0,0,1,.2.6Zm8.4-47.7c.1,0,.1,0,.2-.1s.3-.1.4-.1c.4,0,.7.3.7.9l-.2.2v.3l-.6.3-.1-.1a1.06,1.06,0,0,1-.7-1.1Zm-.9,36c-.2,0-.3-.1-.4-.1a.31.31,0,0,1-.2-.1l-.4.4a.85.85,0,0,1-.6-.3.88.88,0,0,1,.2-1l.4-.3a1.37,1.37,0,0,1,1.2.4,1,1,0,0,1,.2.7Zm.1-19.8-.5-.2a1.79,1.79,0,0,1-.4-1.3,1.27,1.27,0,0,0-.1-.6l.2-.4a4.71,4.71,0,0,0,1-1,2.65,2.65,0,0,1,.5-.6l.6-.1a2.47,2.47,0,0,1,.5,2.2,5.65,5.65,0,0,0,0,1.3l-.3.5a3.87,3.87,0,0,1-.9.1A1.49,1.49,0,0,0,272.1,129Z"/><path id="_Path_2" data-name="&lt;Path&gt;" class="cls-1" d="M315.7,56.1V84.4c3.9,0,10.4-.5,10.4-14.2S319.6,56.1,315.7,56.1Z"/><path id="_Compound_Path_5" data-name="&lt;Compound Path&gt;" class="cls-1" d="M122.7,77.8l.1-.1c0-.1,0,0-.1.1l.6-.5c.1,0,.1.1.2.1v-.1l.7-.1a2.27,2.27,0,0,1,.5,2.1v.2l-.5.4a.83.83,0,0,1-.8-.5l-.1-.1-.4-.4-.1.1a.37.37,0,0,1-.3-.1V115H137V64.3H122.7Zm2.9,24c-.1.1-.2.3-.4.5l-.6.1a.37.37,0,0,0-.3-.1l-.4-.3a.64.64,0,0,1,0-.6v-.2a.22.22,0,0,0,.2.2l-.4-.6a1.42,1.42,0,0,1,1.4-.9,1.14,1.14,0,0,1,.8.3l.1.3A1.23,1.23,0,0,1,125.6,101.8Zm-.5-27.3s.2-.1.2-.2l.3-.3h.5a2.18,2.18,0,0,1,.6,2.5l-.2.2a.6.6,0,0,1-.4.1.79.79,0,0,1-.7-.5c0-.1.1,0,.2,0a.35.35,0,0,0,.2-.1h-.9c0-.1,0-.1-.1-.2a3,3,0,0,1-.3-1.2l.6-.3Z"/><path id="_Compound_Path_6" data-name="&lt;Compound Path&gt;" class="cls-1" d="M196,130.9c-.3,1-.8,1.5-1.6,1.5a4.25,4.25,0,0,1-1.1-.2,3.09,3.09,0,0,0-.8-.2l-.4-.4a.92.92,0,0,1,.6-1.1h-9.1l-.5.5-.3.3-.4.2a.7.7,0,0,1-.5-.4.62.62,0,0,1-.6-.4v-.1H131.6a2.65,2.65,0,0,1-.6.5l-.5-.1a1.38,1.38,0,0,1-.3-.4H9.3V94.7c-1.2.6-2,1.1-2.5,1.4v4.8l.2-.1a.37.37,0,0,0,.3.1l.1.1a.55.55,0,0,1,.5-.3,1.06,1.06,0,0,1,.9.8.74.74,0,0,1-.4.8H8.2a.62.62,0,0,1-.6-.6h.1l-.1-.1c-.1.2-.3.2-.4.3a.35.35,0,0,0,.1-.2v.1h0l-.4.4H6.8v7.2H7a1.34,1.34,0,0,1,.8,1.4l-.4.4H6.8v20.7A1.22,1.22,0,0,0,8,133.1H24.5l-.2-.2v-.3L24,132c.1-.1.2-.4.6-.4s.4.2.5.4l.1.1.6.3a.66.66,0,0,1-.2.7l-.2.2H42.7v-.2l.4-.5h.2a.35.35,0,0,0-.1.2l.3-.4a.81.81,0,0,1,1.1.8h64.5l.2-.2h.2a.59.59,0,0,1,.5.2v.1h33.8a.55.55,0,0,1,.3-.5l.4-.1c.5,0,.6.4.7.6h42.3a.37.37,0,0,1-.3-.1l-.4-.6h-.2a.37.37,0,0,1-.3-.1h-.2c-.8.1-1.3-.1-1.4-.8l.4-.5h.8l.3-.3h.2l.4.2h0a3.18,3.18,0,0,1,.9-.3c.3,0,.8.1,1,1l-.5.5.1-.1v.1a.8.8,0,0,1-.7.8h26c-.4-.8-.9-1.7-1.3-2.5H195.4ZM87.8,132.4l-.4.5H86.3l-.4-.3a1.13,1.13,0,0,1,.5-1.4c.1,0,.1-.1.2-.1l.2-.1c.1,0,.2-.1.3-.1s.5.1.6.6a.35.35,0,0,0-.2-.1l.5.7C87.9,131.9,87.8,132,87.8,132.4Z"/><path id="_Compound_Path_7" data-name="&lt;Compound Path&gt;" class="cls-1" d="M51.8,48.1l-.3.4h-.3a.67.67,0,0,1-.7-.6c0-.1,0,0,.1,0l-.3-.6H8a1.22,1.22,0,0,0-1.2,1.2V75l.2.3a1.45,1.45,0,0,1-.2.7v8.7c.8-.3,1.6-.6,2.5-.9v-34H75.5v-.2l.4-.4H76a.91.91,0,0,1,.7.3c.1.1.1.2.2.3h40.5c-.2-.1-.4-.2-.6,0l-.7-.4c0-.4.1-.7.1-1a1,1,0,0,1,.1-.4v-.2a1,1,0,0,1,.4-.5H106.2a.37.37,0,0,1-.1.3c0,.1-.1.2-.1.3l-.7.3-.1-.1h0c.3,0,.4-.1.4-.2l-.7.3c-.4-.2-.4-.6-.5-.9H51.8Zm6.7.9v.4C57.5,49.5,58.1,48.3,58.5,49Z"/><path id="_Path_3" data-name="&lt;Path&gt;" class="cls-1" d="M368.5,37.6c-.3-.5-.7-.9-1-1.4,0,.1-.1.2-.1.3h.1c.5.1.6.6.6,1h.3a.35.35,0,0,0-.1.2Z"/><path id="_Compound_Path_8" data-name="&lt;Compound Path&gt;" class="cls-1" d="M147.7,115h13.5V96c0-1.3,0-2.6-.1-3.8s-.1-2.4-.1-3.4a14.36,14.36,0,0,0-.2-2.4,20.57,20.57,0,0,0,1.5,2.4c.7,1,1.4,2.1,2.1,3.2s1.5,2.3,2.3,3.4,1.5,2.1,2,2.9L180.8,115h11.4V101.8h-.4l-.4-.5a.66.66,0,0,0-.1-.6.82.82,0,0,1,.2-1l.2-.1h.5V64.3H180.6a1.63,1.63,0,0,1-.3.6c-.1.1-.1.1-.1.3l-.4.5H179l-.3-.3V81.7c0,1.1,0,2.1.1,3.2h0c.1-.1.1-.2.2-.3l.5-.2a1.15,1.15,0,0,1,1,1.2,1.52,1.52,0,0,1-1.5,1.2h0c0,.8.1,1.5.1,2.2a14.36,14.36,0,0,0,.2,2.4c-.3-.5-.7-1.3-1.4-2.3s-1.3-2.1-2.1-3.3-1.6-2.3-2.4-3.5-1.5-2.1-2.1-2.9L167,73.6a1.09,1.09,0,0,1-.5.1,1.42,1.42,0,0,1-.6-.2l-.1-.5.3-.3.1-.1-6.1-8.1h-6.3l.1.1a1.78,1.78,0,0,1-.1,1.1c0,.1-.1.2-.1.3l-.7.3-.1-.1h0c.3,0,.4-.1.4-.2l-.7.3c-.4-.2-.4-.7-.5-1a.6.6,0,0,0-.1-.4l.1-.6h-4.6V115Zm41.2-29.3a.46.46,0,0,1,.5.4c.1.3-.1.7-.8,1l-.6-.5C188.3,85.8,188.8,85.7,188.9,85.7Zm-.6-8.2a1.55,1.55,0,0,1-.2,1.2,1.23,1.23,0,0,1-1,.5,1.14,1.14,0,0,1-.8-.3l-.2-.3c0-.4,0-.8.3-1a1.71,1.71,0,0,1,1.5-.4Zm-2.9-5.7.4-.3c.3,0,.3-.1.4-.3l.8-.2c0,.1.1.1.2.2a1.37,1.37,0,0,1,.5,1l-.4.4-.1.1a.83.83,0,0,1-.8.5h-.2l-.4-.4A.77.77,0,0,1,185.4,71.8Zm-.5,12.5a1,1,0,0,1,.7-.2,1.27,1.27,0,0,0,.6-.1l.5.3c.5,1.5-.8,1.9-1.2,2.1L185,86a2.81,2.81,0,0,1-.1-.8v-.9ZM169,89.9v-.6c.3-.1.4.1.4.3h.4a.6.6,0,0,1-.1.4l.4.6c-.1.5-.5.6-.7.4l-.1.1c-.5-.1-.5-.6-.6-.8v-.1l.3-.3Zm-7.1-19.3v-.5a.68.68,0,0,1,.7.7h0a.69.69,0,0,1-.6.7v-.4a.54.54,0,0,1-.4-.3C161.7,70.7,161.8,70.6,161.9,70.6Zm-2.6.7a.68.68,0,0,1,.6.4.22.22,0,0,0,.2.2.31.31,0,0,0,.2-.1l.6.6s-.1.1-.1.5l-.4.5h-.5a2,2,0,0,1-1.4-.5l-.1-.5C158.6,71.8,158.9,71.3,159.3,71.3Zm-1.4,33.5h.2v-.5a.71.71,0,0,1,.7.8,1.42,1.42,0,0,1-.2.6.76.76,0,0,1-.5.2v-.5h-.2Zm-2.4,5,.4-.4h.6l.4.5a1.36,1.36,0,0,1,.2,1l-.4.3h-.6l-.4-.5v-.1l-.3-.5A.37.37,0,0,0,155.5,109.8Zm-1.8-25.4a.35.35,0,0,0-.1.2l.4-.4h.2c.4,0,.6.1.7.3a1,1,0,0,1,.2,1l-.2.3a1.69,1.69,0,0,1-.5.2h-.1a.37.37,0,0,0-.3.1l-.5-.7.1-.1v.2c0,.1.1.1.2.1l-.4-.5C153.3,84.6,153.6,84.4,153.7,84.4Zm-1.5,9.5a1.61,1.61,0,0,0,.7-1l.4-.3c.8,0,1,.1,1.2.3a1.07,1.07,0,0,0,.5.3l.3.5a16.82,16.82,0,0,1-.7,2.4c-.1.3-.2.5-.3.8l-.2.3a.64.64,0,0,1-.6,0h-.2c.1,0,.2-.1.2-.3l-.8.3a1.38,1.38,0,0,0-.3-.4c-.1-.2-.1-.2-.4-.2l-.4-.4A2,2,0,0,1,152.2,93.9Z"/><path id="_Path_4" data-name="&lt;Path&gt;" class="cls-1" d="M212.8,47.4H132.3l-.3.4h-.8l-.4-.4H119.1a1.74,1.74,0,0,1,.6,1.1c0,.3-.1,1-1.2,1.3h32c0-.1.1-.1.1-.2v-.1h0l.1-.1-.1-.6a.75.75,0,0,0,.5-.8l.4-.4a.75.75,0,0,1,.5.1l.1-.1a.68.68,0,0,1,.6.4l.1-.1c.6.6.1,1.3-.2,1.7h58.8A8.26,8.26,0,0,0,212.8,47.4Z"/><path id="_Compound_Path_9" data-name="&lt;Compound Path&gt;" class="cls-1" d="M113.2,89.3a19.7,19.7,0,0,0,1.5-8.2,20.5,20.5,0,0,0-1.4-7.8,13,13,0,0,0-4-5.2,13.73,13.73,0,0,0-2-1.3.85.85,0,0,1,0,.7l-.2.3a1.69,1.69,0,0,1-.5.2h-.1a.37.37,0,0,0-.3.1l-.5-.7.1-.1v.2c0,.1.1.1.2.1l-.4-.5a1.08,1.08,0,0,1,.4-.5.35.35,0,0,0-.1.2l.3-.4a30.05,30.05,0,0,0-3.2-1.1,33.46,33.46,0,0,0-8.1-.9H73.1V80.3a1.59,1.59,0,0,1,1.3,1.3l-.2.4c-.1,0-.2.2-.2.4l-.2.2a.6.6,0,0,1-.4.1h-.2v3.2a42.47,42.47,0,0,1-8.7,1.6H63.2c-6,0-15.3-4.1-19.6-6.2a.1.1,0,0,1-.1.1l-.5.1c-.3-.2-.5-.4-.5-.7a7.37,7.37,0,0,1-1.1-.6,13.63,13.63,0,0,1-2.3-1.4c-.6-.5-.7-.7-.7-.8a1.48,1.48,0,0,1-.1-.7,1.57,1.57,0,0,1,.6-1.3c.3-.2,1.2-.7,3.6-.7a18.08,18.08,0,0,1,5.8.9A19.93,19.93,0,0,1,53.7,79l2.2,1.6L62.3,69l-1.8-1.3a30.19,30.19,0,0,0-8.2-4.2,29,29,0,0,0-9.7-1.6h-.3l.5.4a3.54,3.54,0,0,1-.1.6c0,.1-.1.1,0,.1l-.4.2c-.2.5-.8.5-1.1.6s-.3,0-.4.1h-.5a2.09,2.09,0,0,1-.4-.6c-.1-.1-.1-.3-.2-.3v-.6a.85.85,0,0,1,.6-.2,1.61,1.61,0,0,1,.9.3h0c0-.1.1-.1,0-.1l.2-.2a28.89,28.89,0,0,0-6.1.9A17.24,17.24,0,0,0,29.2,66,11,11,0,0,0,25,70.8a15.06,15.06,0,0,0-1.4,6.8,17.23,17.23,0,0,0,.9,5.8h0c1.8.1,3.5.3,5.1.5l-.2-.2v-.6l.1-.3a.91.91,0,0,1,.7-.3,1.27,1.27,0,0,1,.9.4c.1.1.2.1.3.2l.2.6a1.21,1.21,0,0,1-.5.5c11.8,2.3,18.3,8.4,33.8,8.4a39,39,0,0,0,8.3-.9V115H87V98.6h3.2a1.85,1.85,0,0,1,.2-.7l.4-.1a.75.75,0,0,1,.7.5v.3h1.2a2.45,2.45,0,0,1,.5-2l.6.1c0,.1-.1.2,0,.3l.3-.1-.1-.5a.9.9,0,0,1,.5-.1c.9,0,1.1,1.1,1.3,2.1v.1a32.87,32.87,0,0,0,6.6-.9,18.11,18.11,0,0,0,6.6-3A14,14,0,0,0,113.2,89.3ZM53.3,77.8a.35.35,0,0,0-.1.2l.7-.4.3.3.5.5c-.1.6-.5.7-.7.7a1.42,1.42,0,0,1-.6-.2.35.35,0,0,1-.2-.1l-.3-.5A.55.55,0,0,1,53.3,77.8ZM45.2,66.3A1,1,0,0,1,46,66l.3.1a1.21,1.21,0,0,1,0,1.6l-.4.1a.52.52,0,0,1-.4-.2h-.3l-.2-.3A1.5,1.5,0,0,1,45.2,66.3ZM34,67.5h-.1l-.5-.4v-.5c0,.1.1.1.2.1l-.4-.5a.78.78,0,0,1,.8-.6,1.37,1.37,0,0,1,1.1.4l.1.3C35.2,67.2,34.4,67.4,34,67.5ZM35.8,66l.4-.4h.2c.4,0,.6.1.7.3a1,1,0,0,1,.2,1l-.4.4h-.2c-.4,0-.6-.1-.7-.3A2,2,0,0,1,35.8,66Zm.7,14a1.22,1.22,0,0,1-.4-1.4l.5-.3c.4,0,.7.5.7,1.4Zm1.1-3.8c-.1.4-.2,1.1-.9,1.1a1.27,1.27,0,0,1-.6-.1l-.1-.7a.3.3,0,0,0,0-.6l-.2-.5a2.19,2.19,0,0,1,.3-.5l.7-.3c-.2-.1-.3-.2-.4-.2a1,1,0,0,1-.2-1l.4-.4h.2a.91.91,0,0,1,.7.3,1,1,0,0,1,.2,1l-.4.4h-.4c.1.1.2.1.2.2s.1,0,.3,0l.4.7C37.7,75.6,37.6,75.9,37.6,76.2Zm38.6,26.5-.5.2a.64.64,0,0,1-.5-.7l-.2-.1a.85.85,0,0,1-.2-.6l.2-.2-.3-.6c-.1-.2-.1-.3-.2-.5l-.1-.1c0-.2-.1-.3,0-.5a.1.1,0,0,1-.1-.1h0l-.5.5h.1l-.2.2c-.5-.1-.5-.6-.6-.8v-.1l.3-.5a.62.62,0,0,1,.7.2v-.2s.1-.1.1-.5l.4-.5h.8l.4.3.1.3a7.11,7.11,0,0,1,.4,2C77.1,101.1,76.6,102.2,76.2,102.7Zm2.1-.5c-.2,0-.3,0-.4-.1s-.3-.1-.4-.1l-.4-.4V101l.1-.3a.91.91,0,0,1,.7-.3,1.27,1.27,0,0,1,.9.4c.1.1.2.1.3.2l.2.6C78.9,102,78.6,102.2,78.3,102.2Zm3.4-16.8h-.1L81,85v-.5c0,.1.1.1.2.1l-.4-.5a.78.78,0,0,1,.8-.6,1.37,1.37,0,0,1,1.1.4l.1.3C82.9,85.1,82.1,85.3,81.7,85.4Zm2.5,12.5a1.22,1.22,0,0,1-.4-1.4l.5-.3c.4,0,.7.5.7,1.4Zm1.1-3.8c-.1.4-.2,1.1-.9,1.1a1.27,1.27,0,0,1-.6-.1l-.1-.8a.3.3,0,1,0,0-.6l-.2-.5a2.19,2.19,0,0,1,.3-.5l.7-.3c-.2-.1-.3-.2-.4-.2a1,1,0,0,1-.2-1l.4-.4h.2a.91.91,0,0,1,.7.3,1,1,0,0,1,.2,1l-.4.4h-.4c.1.1.2.1.2.2s.1,0,.3,0l.4.7A1.17,1.17,0,0,0,85.3,94.1Zm0-18.1h-.2c-.4,0-.6-.1-.7-.3a1,1,0,0,1-.2-1l.7-.3a1.24,1.24,0,0,1,.8,1.2ZM99,64.6l.5.4v1l-.3.4h-.3a.67.67,0,0,1-.7-.6c0-.1,0,0,.1,0l-.3-.6A1.11,1.11,0,0,1,99,64.6ZM96.6,95.5h0l-.4.5H95l-.3-.1a2.57,2.57,0,0,1-.5-1.2c-.1-.3-.1-.7-.3-.9l.1-.7a1.41,1.41,0,0,1,.9-.1,1.59,1.59,0,0,0,.9-.1l.5.5a.35.35,0,0,1-.1-.2h.3l.4.3c.1.2,0,.5,0,.7v.3c0-.1-.1-.1-.2-.2l.4.5A.68.68,0,0,1,96.6,95.5Zm-2.3-8.4H86.9V75.8h7.6q3.45,0,4.8,1.5a5.55,5.55,0,0,1,.6.8c0-.1.1-.2.2-.3l.5-.1a.1.1,0,0,1,.1.1.86.86,0,0,1,.6,1.2l-.5.3.1-.1-.5.2a5.84,5.84,0,0,1,.2,1.9,5.62,5.62,0,0,1-1.5,4.3Q97.9,87.1,94.3,87.1Zm7.4,9.9a1.42,1.42,0,0,1-.6-.2.35.35,0,0,1-.2-.1l-.3-.5a1.08,1.08,0,0,1,.4-.5.35.35,0,0,0-.1.2l.7-.4.3.3.5.5C102.2,97,101.8,97,101.7,97Zm5.1-18.9c-.1.3-.2.5-.3.8l-.2.3a.64.64,0,0,1-.6,0h-.2c.1,0,.2-.1.2-.3l-.8.3a1.38,1.38,0,0,0-.3-.4c-.1-.2-.1-.2-.4-.2l-.4-.4c-.2-1.4.2-1.8.7-2.2a1.61,1.61,0,0,0,.7-1l.4-.3c.8,0,1,.1,1.2.3a1.07,1.07,0,0,0,.5.3l.3.5A15.55,15.55,0,0,1,106.8,78.1Z"/><path id="_Compound_Path_10" data-name="&lt;Compound Path&gt;" class="cls-1" d="M62.3,93.8c0-.1-.1-.2-.1-.3C50,93.9,35,83.6,22,84.2a9.15,9.15,0,0,0-1.7.1C6.6,85.3,1.1,90.9.9,91.2A1.92,1.92,0,0,0,0,93a2.5,2.5,0,0,0,.8,1.8,2.41,2.41,0,0,0,1.8.7,2.73,2.73,0,0,0,1.9-.8S8,91.3,16.7,89.9a2.21,2.21,0,0,1,0-1.4l.4-.3h.2c.2,0,.4-.1.6-.1q1.35,0,1.5,1.5c.4,0,.7-.1,1.1-.1h1.3c5.7,0,14.4,4.1,14.4,4.2,3.4,1.3,9.2,4.1,11.1,5.1,1.7,1,1.7,1.9,1.7,2.3,0,.8,0,2.9-6.4,2.9a16.28,16.28,0,0,1-3.1-.3v.2l-.7.3c-.1-.1-.1,0-.2,0a2.77,2.77,0,0,1-.9-.1l-.2-.4a.37.37,0,0,1,.1-.3,5.64,5.64,0,0,1-1.2-.4,13.9,13.9,0,0,1-2.8-1.2l.1.4a1.76,1.76,0,0,0-.5.4,3.75,3.75,0,0,1-1.2.7l-.3-.1a2.43,2.43,0,0,1-1-1.4l.1-.3a5,5,0,0,1,.7-.8,13,13,0,0,1-1.5-1L27.8,98l-6.9,11.4,1.8,1.3a38.72,38.72,0,0,0,9.3,4.8,31.54,31.54,0,0,0,10.8,1.9,35,35,0,0,0,7.4-.8,19.65,19.65,0,0,0,6.6-2.8,15,15,0,0,0,4.8-5.2,16.59,16.59,0,0,0,1.8-8A16,16,0,0,0,62.3,93.8ZM5,92c0,.4-.1,1.2-.9,1.2h0l-.4-.7v-.3c0-.2-.1-.5.1-.7a.83.83,0,0,1,.8-.3l.5.5A.37.37,0,0,0,5,92Zm8.4-1.7-.3.2h-.5a5,5,0,0,1-1.2-.2c-.1,0-.3-.1-.4-.1l-.3-.2a1.67,1.67,0,0,1,0-1.8h0l-.3-.6a.8.8,0,0,1-.1-.9l.5-.3h.1a.76.76,0,0,1,.5-.2h.1l.4.5h0a1.27,1.27,0,0,1,.6-.1h.2l.3.2.1.2C13.8,88,14.4,89,13.4,90.3Zm13.4-2.2a1.27,1.27,0,0,1-.6.1h-.3a.76.76,0,0,1-.4-.1l-.4-.4v-1l.6-.4c.1,0,.2,0,.2.1.4.1,1.2.2,1.2,1.3Zm20.6,9-.4.3h0l-.6.3h0c-.1,0-.2.1-.3.1a.76.76,0,0,1-.5-.2l-.2-.4a.68.68,0,0,1,.7-.7v-.1c0-.1,0-.1.1-.2l.5-.4C46.9,95.9,47.5,96,47.4,97.1ZM26.9,110c-.1.1-.1.1-.1.2l-.6.5a1.09,1.09,0,0,0-.5-.1,4.33,4.33,0,0,1-.5.1l-.4-.2a1.21,1.21,0,0,1-.1-1.4.35.35,0,0,1,.1-.2l-.1-.3a.52.52,0,0,1,.8-.4h.1a.85.85,0,0,1,.6-.2h.2l.4.4c0,.1,0,.1.1.1l.3.3C27.4,109.6,27.1,109.9,26.9,110Zm3.4,1.4-.4.2h-.4l-.4-.5v.2l-.2-.2a.75.75,0,0,1,.1-.5.85.85,0,0,1,1.3.1C30.5,110.9,30.4,111.2,30.3,111.4Zm8.1-3.6c-.2,0-.3-.1-.3-.2l-.4-.4v-.4l.3-.4c.5-.1.9.2.9.9Zm7.8-1.2c0,.4-.1,1.1-.9,1.1h-.1l-.4-.5c0-.2,0-.3-.1-.4a.56.56,0,0,1-.1-.6l.5-.4a1.16,1.16,0,0,1,1-.2l.2.7A1,1,0,0,0,46.2,106.6Zm3.8,2.2a.68.68,0,0,1-.6.3h-.1a.35.35,0,0,0,.3-.3l-.6.5a.71.71,0,0,1-.5-.7,1.12,1.12,0,0,1,1.4-.7l.2.2A1,1,0,0,1,50,108.8Zm2.7,1.1c0,.4-.1,1.2-.9,1.2h0l-.4-.7v-.3c0-.2-.1-.5.1-.7a.83.83,0,0,1,.8-.3l.5.5A.37.37,0,0,0,52.7,109.9Zm1.8-15.4c-.1.3-.3.5-.5.5s-.4-.2-.5-.4a.1.1,0,0,0-.1-.1l-.5-.1a.8.8,0,0,1,.2-1l-.1-.1a.79.79,0,0,1,.8-.5H54l.7.4a1.21,1.21,0,0,1-.3.8h0Zm3.1,8.6a.76.76,0,0,1-.4-.1H57l-.3-.4a.66.66,0,0,1,.2-.7l.4-.7h.8l.4.4v1l-.3.4-.2.1Zm3.5,5.1-.3.2h-.5a5,5,0,0,1-1.2-.2c-.1,0-.3-.1-.4-.1l-.3-.2a1.67,1.67,0,0,1,0-1.8h0l-.3-.6a.8.8,0,0,1-.1-.9l.5-.3h.1a.76.76,0,0,1,.5-.2h.1l.4.5h0a1.27,1.27,0,0,1,.6-.1h.2l.3.2.1.2C61.5,106,62.1,107,61.1,108.2Z"/><path id="_Compound_Path_11" data-name="&lt;Compound Path&gt;" class="cls-1" d="M504.9,92.9l-.5.6a3.81,3.81,0,0,0-1.7-.4c0,.2.1.4,0,.6a1.07,1.07,0,0,1,.2.6h0a1,1,0,0,1-.2.7.76.76,0,0,1-.5.2v-.5H502a.4.4,0,0,1,.1-.5h-.7l-.4-.5c-.1,0-.3-.1-.4-.1a.37.37,0,0,0,.1.3l-.6.5a2.29,2.29,0,0,0-1.1.1,5,5,0,0,1-1.2.2.75.75,0,0,1-.5-.1V117h7.5V92.9Zm-5,3.9a.91.91,0,0,1-.7.3H499l-.4-.4a1.5,1.5,0,0,1,.2-1,1,1,0,0,1,.8-.3l.4.4A.84.84,0,0,1,499.9,96.8Zm2.1,8.3h-.6l-.4-.3c-.1-.4,0-.7.4-.8a.1.1,0,0,1-.1.1l.5-.4c.5.1.5.6.6.8v.1Z"/><path id="_Compound_Path_12" data-name="&lt;Compound Path&gt;" class="cls-1" d="M518.5,87.1a2,2,0,0,0,.2-.9l.4-.5a1.06,1.06,0,0,1,.9.6h0l-.1-.5a1.9,1.9,0,0,1,1.8.5v-.4l.6-.4a.77.77,0,0,0,.3.1h.2c.2,0,.3.1.6.2l.2.6c-.2.3-.4.8-1.1.8a2.53,2.53,0,0,1,.1,2.4l-.4.3a.85.85,0,0,1-.6-.2l-.3.1a1.09,1.09,0,0,1,.1.5v.2l-.1-.1.5.5a.73.73,0,0,1-.7.6,4.33,4.33,0,0,1-.5-.1c-.1,0-.1,0-.1-.1h0a.37.37,0,0,0,.3-.1l.1-.1h-.1l-.6.5c-.1-.1-.2-.1-.4-.1l-.3-.8a2,2,0,0,0,.8-1l.1-.1a1.79,1.79,0,0,1-.7-.5c0,.2-.1.3-.2.5l-.1.3-.6.2c-.1,0-.1-.1-.2-.1v27.3h7.5V94.4h14.6V92.3a1.14,1.14,0,0,1-.3-.8l.3-.3V86.9H526V73.7h25.1V66.2H518.5Zm15.7,4.5a.31.31,0,0,0,.1-.2l.4-.3h.1a1.28,1.28,0,0,1,1,.4,1.8,1.8,0,0,1,.3,1.1l-.7.3h-.1a1.21,1.21,0,0,1-.8.3h-.3l-.3-.4A2.54,2.54,0,0,1,534.2,91.6Zm-1.5.1c.1,0,0,.1,0,0l.4-.1c.3.1.5.3.4.6a1.18,1.18,0,0,1-1.1,1h-.3l-.3-.4A1.09,1.09,0,0,1,532.7,91.7Zm9.1-21.2a1.37,1.37,0,0,1,1.8.1,1.14,1.14,0,0,1,.3.8l-.1.3a1.08,1.08,0,0,1-.7.3,1.38,1.38,0,0,1-1.3-1.1ZM533.1,69a.35.35,0,0,0-.1.2l.5-.4a1.08,1.08,0,0,1,.5.4.35.35,0,0,0-.2-.1l.4.5a.58.58,0,0,1-.6.6,1.14,1.14,0,0,1-.7-.3l-.3-.5A.6.6,0,0,1,533.1,69Zm-3.7-.6.3-.4c1.1-.2,1.2.7,1.3,1.1l-.7.4a1.51,1.51,0,0,1-.8-.2A1,1,0,0,1,529.4,68.4Zm-8.1,24.9-.4-.4a1.5,1.5,0,0,1,.2-1,.91.91,0,0,1,.7-.3h.2l.4.5v.2c-.1.3-.2,1-.9,1Zm1.6,15.1c-.4,0-.6-.3-.8-.5l-.2-.5c.1-.5.4-.5.6-.5a.85.85,0,0,1,.6.3l.1.1h-.1l.4.6A.56.56,0,0,1,522.9,108.4Zm2.3-19c.6-.3.6.9,0,.6Zm-.3,10.2a1.34,1.34,0,0,1-.3,1.2,1.23,1.23,0,0,1-.8.4,1.28,1.28,0,0,1-1-.4l-.1-.2a1.09,1.09,0,0,1,.2-1,1.38,1.38,0,0,1,1.8-.2ZM523.1,91h-.3l-.4-.4V90l.3-.4a1.51,1.51,0,0,1,.8.1c.1,0,.1,0,.1.1l.3.5C524,90.7,523.7,91,523.1,91Zm-.8-17.9.3-.3a.73.73,0,0,1,.9.4h-.1l.4.5a.75.75,0,0,1-.7.5,1.23,1.23,0,0,1-.8-.4A.82.82,0,0,1,522.3,73.1Z"/><path id="_Compound_Path_13" data-name="&lt;Compound Path&gt;" class="cls-1" d="M557.4,73.7h14.8v43.2h7.5V73.7h14.8V66.2H557.4ZM577,86.3l.3-.4c1.1-.2,1.2.7,1.3,1.1l-.7.4a1.51,1.51,0,0,1-.8-.2A2.77,2.77,0,0,1,577,86.3ZM565.3,70.8a.37.37,0,0,0,.3-.1l.6.3a1.52,1.52,0,0,1-.3,1.3l-.2.2c-.1,0-.2.1-.4.1a.91.91,0,0,1-.7-.3l-.1-.1-.3-.5A1.11,1.11,0,0,1,565.3,70.8Z"/><path id="_Compound_Path_14" data-name="&lt;Compound Path&gt;" class="cls-1" d="M497.3,83.5a1.42,1.42,0,0,1,.2.6l-.2.1v7.1a1.79,1.79,0,0,1,.7-.5h.4a2.51,2.51,0,0,0,.7.4,3.49,3.49,0,0,1,.9.6c-.1-.7.3-1,.9-1.4h.4a6.58,6.58,0,0,1,3.7,2.5V90.4c-.2,0-.3-.1-.3-.2a1.49,1.49,0,0,1-.2-.9V89l.1.1-.3-.5a.57.57,0,0,1,.6-.6h.2V66.2h-7.5V83.5Zm4.4-.3c.4-.1.8,0,.9.4a1,1,0,0,1-.3,1.1l-.4.1c-.5-.1-.5-.7-.5-.9v-.2Z"/></g></svg>